<?xml version="1.0" encoding="UTF-8" standalone="no"?>
<!DOCTYPE svg PUBLIC "-//W3C//DTD SVG 1.1//EN"
 "http://www.w3.org/Graphics/SVG/1.1/DTD/svg11.dtd">
<!-- Generated by graphviz version 2.43.0 (0)
 -->
<!-- Title: src/main.cpp Pages: 1 -->
<svg width="897pt" height="203pt"
 viewBox="0.00 0.00 896.50 203.00" xmlns="http://www.w3.org/2000/svg" xmlns:xlink="http://www.w3.org/1999/xlink">
<g id="graph0" class="graph" transform="scale(1 1) rotate(0) translate(4 199)">
<title>src/main.cpp</title>
<!-- Node1 -->
<g id="Node000001" class="node">
<title>Node1</title>
<g id="a_Node000001"><a xlink:title=" ">
<polygon fill="#999999" stroke="#666666" points="415.5,-195 336.5,-195 336.5,-176 415.5,-176 415.5,-195"/>
<text text-anchor="middle" x="376" y="-183" font-family="Helvetica,sans-Serif" font-size="10.00">src/main.cpp</text>
</a>
</g>
</g>
<!-- Node2 -->
<g id="Node000002" class="node">
<title>Node2</title>
<g id="a_Node000002"><a xlink:title=" ">
<polygon fill="#e0e0e0" stroke="#999999" points="60,-74 0,-74 0,-55 60,-55 60,-74"/>
<text text-anchor="middle" x="30" y="-62" font-family="Helvetica,sans-Serif" font-size="10.00">iostream</text>
</a>
</g>
</g>
<!-- Node1&#45;&gt;Node2 -->
<g id="edge1_Node000001_Node000002" class="edge">
<title>Node1&#45;&gt;Node2</title>
<g id="a_edge1_Node000001_Node000002"><a xlink:title=" ">
<path fill="none" stroke="#63b8ff" d="M336.21,-176.91C299.13,-169.32 242.56,-156.43 195,-140 144.12,-122.42 87.46,-95.02 55.53,-78.8"/>
<polygon fill="#63b8ff" stroke="#63b8ff" points="56.95,-75.59 46.45,-74.15 53.76,-81.83 56.95,-75.59"/>
</a>
</g>
</g>
<!-- Node3 -->
<g id="Node000003" class="node">
<title>Node3</title>
<g id="a_Node000003"><a xlink:title=" ">
<polygon fill="#e0e0e0" stroke="#999999" points="446,-134.5 402,-134.5 402,-115.5 446,-115.5 446,-134.5"/>
<text text-anchor="middle" x="424" y="-122.5" font-family="Helvetica,sans-Serif" font-size="10.00">string</text>
</a>
</g>
</g>
<!-- Node1&#45;&gt;Node3 -->
<g id="edge2_Node000001_Node000003" class="edge">
<title>Node1&#45;&gt;Node3</title>
<g id="a_edge2_Node000001_Node000003"><a xlink:title=" ">
<path fill="none" stroke="#63b8ff" d="M383.08,-175.87C390.24,-167.14 401.49,-153.43 410.39,-142.59"/>
<polygon fill="#63b8ff" stroke="#63b8ff" points="413.25,-144.62 416.89,-134.67 407.84,-140.18 413.25,-144.62"/>
</a>
</g>
</g>
<!-- Node4 -->
<g id="Node000004" class="node">
<title>Node4</title>
<g id="a_Node000004"><a xlink:title=" ">
<polygon fill="#e0e0e0" stroke="#999999" points="511.5,-134.5 464.5,-134.5 464.5,-115.5 511.5,-115.5 511.5,-134.5"/>
<text text-anchor="middle" x="488" y="-122.5" font-family="Helvetica,sans-Serif" font-size="10.00">vector</text>
</a>
</g>
</g>
<!-- Node1&#45;&gt;Node4 -->
<g id="edge3_Node000001_Node000004" class="edge">
<title>Node1&#45;&gt;Node4</title>
<g id="a_edge3_Node000001_Node000004"><a xlink:title=" ">
<path fill="none" stroke="#63b8ff" d="M392.53,-175.87C410.97,-166.23 441.04,-150.53 462.51,-139.31"/>
<polygon fill="#63b8ff" stroke="#63b8ff" points="464.16,-142.4 471.41,-134.67 460.92,-136.19 464.16,-142.4"/>
</a>
</g>
</g>
<!-- Node5 -->
<g id="Node000005" class="node">
<title>Node5</title>
<g id="a_Node000005"><a xlink:title=" ">
<polygon fill="#e0e0e0" stroke="#999999" points="586,-134.5 530,-134.5 530,-115.5 586,-115.5 586,-134.5"/>
<text text-anchor="middle" x="558" y="-122.5" font-family="Helvetica,sans-Serif" font-size="10.00">numeric</text>
</a>
</g>
</g>
<!-- Node1&#45;&gt;Node5 -->
<g id="edge4_Node000001_Node000005" class="edge">
<title>Node1&#45;&gt;Node5</title>
<g id="a_edge4_Node000001_Node000005"><a xlink:title=" ">
<path fill="none" stroke="#63b8ff" d="M405.89,-175.93C435.34,-167.35 481.51,-153.51 521,-140 522.85,-139.37 524.75,-138.7 526.66,-138.02"/>
<polygon fill="#63b8ff" stroke="#63b8ff" points="527.99,-141.26 536.17,-134.52 525.58,-134.69 527.99,-141.26"/>
</a>
</g>
</g>
<!-- Node6 -->
<g id="Node000006" class="node">
<title>Node6</title>
<g id="a_Node000006"><a xlink:title=" ">
<polygon fill="#e0e0e0" stroke="#999999" points="131.5,-74 78.5,-74 78.5,-55 131.5,-55 131.5,-74"/>
<text text-anchor="middle" x="105" y="-62" font-family="Helvetica,sans-Serif" font-size="10.00">iterator</text>
</a>
</g>
</g>
<!-- Node1&#45;&gt;Node6 -->
<g id="edge5_Node000001_Node000006" class="edge">
<title>Node1&#45;&gt;Node6</title>
<g id="a_edge5_Node000001_Node000006"><a xlink:title=" ">
<path fill="none" stroke="#63b8ff" d="M353.74,-175.99C331.22,-167.28 295.49,-153.2 265,-140 217.6,-119.48 163.25,-93.68 131.66,-78.46"/>
<polygon fill="#63b8ff" stroke="#63b8ff" points="133.14,-75.29 122.61,-74.09 130.1,-81.59 133.14,-75.29"/>
</a>
</g>
</g>
<!-- Node7 -->
<g id="Node000007" class="node">
<title>Node7</title>
<g id="a_Node000007"><a xlink:href="container_8h.html" target="_top" xlink:title=" ">
<polygon fill="white" stroke="#666666" points="384,-140 274,-140 274,-110 384,-110 384,-140"/>
<text text-anchor="start" x="282" y="-128" font-family="Helvetica,sans-Serif" font-size="10.00">../include/container</text>
<text text-anchor="middle" x="329" y="-117" font-family="Helvetica,sans-Serif" font-size="10.00">/container.h</text>
</a>
</g>
</g>
<!-- Node1&#45;&gt;Node7 -->
<g id="edge6_Node000001_Node000007" class="edge">
<title>Node1&#45;&gt;Node7</title>
<g id="a_edge6_Node000001_Node000007"><a xlink:title=" ">
<path fill="none" stroke="#63b8ff" d="M369.06,-175.87C363.22,-168.59 354.59,-157.85 346.84,-148.2"/>
<polygon fill="#63b8ff" stroke="#63b8ff" points="349.33,-145.72 340.34,-140.11 343.87,-150.1 349.33,-145.72"/>
</a>
</g>
</g>
<!-- Node7&#45;&gt;Node2 -->
<g id="edge16_Node000007_Node000002" class="edge">
<title>Node7&#45;&gt;Node2</title>
<g id="a_edge16_Node000007_Node000002"><a xlink:title=" ">
<path fill="none" stroke="#63b8ff" d="M273.89,-113.81C223.47,-104.39 146.54,-89.8 70.46,-74.26"/>
<polygon fill="#63b8ff" stroke="#63b8ff" points="70.72,-70.74 60.22,-72.16 69.31,-77.6 70.72,-70.74"/>
</a>
</g>
</g>
<!-- Node7&#45;&gt;Node6 -->
<g id="edge9_Node000007_Node000006" class="edge">
<title>Node7&#45;&gt;Node6</title>
<g id="a_edge9_Node000007_Node000006"><a xlink:title=" ">
<path fill="none" stroke="#63b8ff" d="M275.35,-109.99C233.94,-99.17 177.77,-84.5 141.45,-75.02"/>
<polygon fill="#63b8ff" stroke="#63b8ff" points="142.32,-71.63 131.76,-72.49 140.56,-78.4 142.32,-71.63"/>
</a>
</g>
</g>
<!-- Node8 -->
<g id="Node000008" class="node">
<title>Node8</title>
<g id="a_Node000008"><a xlink:title=" ">
<polygon fill="#e0e0e0" stroke="#999999" points="430,-74 372,-74 372,-55 430,-55 430,-74"/>
<text text-anchor="middle" x="401" y="-62" font-family="Helvetica,sans-Serif" font-size="10.00">memory</text>
</a>
</g>
</g>
<!-- Node7&#45;&gt;Node8 -->
<g id="edge7_Node000007_Node000008" class="edge">
<title>Node7&#45;&gt;Node8</title>
<g id="a_edge7_Node000007_Node000008"><a xlink:title=" ">
<path fill="none" stroke="#63b8ff" d="M346.43,-109.84C357.31,-101 371.3,-89.63 382.39,-80.62"/>
<polygon fill="#63b8ff" stroke="#63b8ff" points="384.66,-83.29 390.21,-74.27 380.24,-77.86 384.66,-83.29"/>
</a>
</g>
</g>
<!-- Node9 -->
<g id="Node000009" class="node">
<title>Node9</title>
<g id="a_Node000009"><a xlink:title=" ">
<polygon fill="#e0e0e0" stroke="#999999" points="498.5,-19 445.5,-19 445.5,0 498.5,0 498.5,-19"/>
<text text-anchor="middle" x="472" y="-7" font-family="Helvetica,sans-Serif" font-size="10.00">cstddef</text>
</a>
</g>
</g>
<!-- Node7&#45;&gt;Node9 -->
<g id="edge8_Node000007_Node000009" class="edge">
<title>Node7&#45;&gt;Node9</title>
<g id="a_edge8_Node000007_Node000009"><a xlink:title=" ">
<path fill="none" stroke="#63b8ff" d="M377.53,-109.9C398.36,-101.97 421.8,-90.31 439,-74 452.22,-61.46 461.12,-42.46 466.31,-28.5"/>
<polygon fill="#63b8ff" stroke="#63b8ff" points="469.64,-29.6 469.57,-19.01 463.01,-27.33 469.64,-29.6"/>
</a>
</g>
</g>
<!-- Node10 -->
<g id="Node000010" class="node">
<title>Node10</title>
<g id="a_Node000010"><a xlink:title=" ">
<polygon fill="#e0e0e0" stroke="#999999" points="700.5,-74 635.5,-74 635.5,-55 700.5,-55 700.5,-74"/>
<text text-anchor="middle" x="668" y="-62" font-family="Helvetica,sans-Serif" font-size="10.00">stdexcept</text>
</a>
</g>
</g>
<!-- Node7&#45;&gt;Node10 -->
<g id="edge10_Node000007_Node000010" class="edge">
<title>Node7&#45;&gt;Node10</title>
<g id="a_edge10_Node000007_Node000010"><a xlink:title=" ">
<path fill="none" stroke="#63b8ff" d="M384.11,-111.71C387.12,-111.12 390.09,-110.54 393,-110 493.32,-91.33 521.74,-92.59 625.42,-74.21"/>
<polygon fill="#63b8ff" stroke="#63b8ff" points="626.13,-77.64 635.36,-72.43 624.9,-70.75 626.13,-77.64"/>
</a>
</g>
</g>
<!-- Node11 -->
<g id="Node000011" class="node">
<title>Node11</title>
<g id="a_Node000011"><a xlink:title=" ">
<polygon fill="#e0e0e0" stroke="#999999" points="801.5,-74 718.5,-74 718.5,-55 801.5,-55 801.5,-74"/>
<text text-anchor="middle" x="760" y="-62" font-family="Helvetica,sans-Serif" font-size="10.00">initializer_list</text>
</a>
</g>
</g>
<!-- Node7&#45;&gt;Node11 -->
<g id="edge11_Node000007_Node000011" class="edge">
<title>Node7&#45;&gt;Node11</title>
<g id="a_edge11_Node000007_Node000011"><a xlink:title=" ">
<path fill="none" stroke="#63b8ff" d="M384.09,-111.57C387.1,-111.01 390.08,-110.48 393,-110 529.61,-87.36 567.83,-93.57 708.01,-74.21"/>
<polygon fill="#63b8ff" stroke="#63b8ff" points="708.87,-77.62 718.29,-72.77 707.9,-70.69 708.87,-77.62"/>
</a>
</g>
</g>
<!-- Node12 -->
<g id="Node000012" class="node">
<title>Node12</title>
<g id="a_Node000012"><a xlink:title=" ">
<polygon fill="#e0e0e0" stroke="#999999" points="888.5,-74 819.5,-74 819.5,-55 888.5,-55 888.5,-74"/>
<text text-anchor="middle" x="854" y="-62" font-family="Helvetica,sans-Serif" font-size="10.00">type_traits</text>
</a>
</g>
</g>
<!-- Node7&#45;&gt;Node12 -->
<g id="edge12_Node000007_Node000012" class="edge">
<title>Node7&#45;&gt;Node12</title>
<g id="a_edge12_Node000007_Node000012"><a xlink:title=" ">
<path fill="none" stroke="#63b8ff" d="M384.07,-111.48C387.09,-110.94 390.08,-110.44 393,-110 574.11,-82.51 624.61,-99.5 809.28,-74.1"/>
<polygon fill="#63b8ff" stroke="#63b8ff" points="809.9,-77.54 819.32,-72.69 808.93,-70.61 809.9,-77.54"/>
</a>
</g>
</g>
<!-- Node13 -->
<g id="Node000013" class="node">
<title>Node13</title>
<g id="a_Node000013"><a xlink:title=" ">
<polygon fill="#e0e0e0" stroke="#999999" points="214,-74 150,-74 150,-55 214,-55 214,-74"/>
<text text-anchor="middle" x="182" y="-62" font-family="Helvetica,sans-Serif" font-size="10.00">algorithm</text>
</a>
</g>
</g>
<!-- Node7&#45;&gt;Node13 -->
<g id="edge13_Node000007_Node000013" class="edge">
<title>Node7&#45;&gt;Node13</title>
<g id="a_edge13_Node000007_Node000013"><a xlink:title=" ">
<path fill="none" stroke="#63b8ff" d="M293.79,-109.99C269.26,-100.23 236.85,-87.33 213.24,-77.93"/>
<polygon fill="#63b8ff" stroke="#63b8ff" points="214.29,-74.58 203.71,-74.14 211.71,-81.09 214.29,-74.58"/>
</a>
</g>
</g>
<!-- Node14 -->
<g id="Node000014" class="node">
<title>Node14</title>
<g id="a_Node000014"><a xlink:title=" ">
<polygon fill="#e0e0e0" stroke="#999999" points="286,-74 232,-74 232,-55 286,-55 286,-74"/>
<text text-anchor="middle" x="259" y="-62" font-family="Helvetica,sans-Serif" font-size="10.00">random</text>
</a>
</g>
</g>
<!-- Node7&#45;&gt;Node14 -->
<g id="edge14_Node000007_Node000014" class="edge">
<title>Node7&#45;&gt;Node14</title>
<g id="a_edge14_Node000007_Node000014"><a xlink:title=" ">
<path fill="none" stroke="#63b8ff" d="M312.05,-109.84C301.58,-101.09 288.14,-89.85 277.41,-80.88"/>
<polygon fill="#63b8ff" stroke="#63b8ff" points="279.41,-77.99 269.49,-74.27 274.92,-83.36 279.41,-77.99"/>
</a>
</g>
</g>
<!-- Node15 -->
<g id="Node000015" class="node">
<title>Node15</title>
<g id="a_Node000015"><a xlink:title=" ">
<polygon fill="#e0e0e0" stroke="#999999" points="354,-74 304,-74 304,-55 354,-55 354,-74"/>
<text text-anchor="middle" x="329" y="-62" font-family="Helvetica,sans-Serif" font-size="10.00">chrono</text>
</a>
</g>
</g>
<!-- Node7&#45;&gt;Node15 -->
<g id="edge15_Node000007_Node000015" class="edge">
<title>Node7&#45;&gt;Node15</title>
<g id="a_edge15_Node000007_Node000015"><a xlink:title=" ">
<path fill="none" stroke="#63b8ff" d="M329,-109.84C329,-102.21 329,-92.7 329,-84.45"/>
<polygon fill="#63b8ff" stroke="#63b8ff" points="332.5,-84.27 329,-74.27 325.5,-84.27 332.5,-84.27"/>
</a>
</g>
</g>
<!-- Node16 -->
<g id="Node000016" class="node">
<title>Node16</title>
<g id="a_Node000016"><a xlink:href="node_8h.html" target="_top" xlink:title=" ">
<polygon fill="white" stroke="#666666" points="617.5,-74 486.5,-74 486.5,-55 617.5,-55 617.5,-74"/>
<text text-anchor="middle" x="552" y="-62" font-family="Helvetica,sans-Serif" font-size="10.00">container/nodes/node.h</text>
</a>
</g>
</g>
<!-- Node7&#45;&gt;Node16 -->
<g id="edge17_Node000007_Node000016" class="edge">
<title>Node7&#45;&gt;Node16</title>
<g id="a_edge17_Node000007_Node000016"><a xlink:title=" ">
<path fill="none" stroke="#63b8ff" d="M382.41,-109.99C421.4,-99.76 473.53,-86.09 509.65,-76.61"/>
<polygon fill="#63b8ff" stroke="#63b8ff" points="510.61,-79.98 519.39,-74.05 508.83,-73.21 510.61,-79.98"/>
</a>
</g>
</g>
<!-- Node16&#45;&gt;Node9 -->
<g id="edge18_Node000016_Node000009" class="edge">
<title>Node16&#45;&gt;Node9</title>
<g id="a_edge18_Node000016_Node000009"><a xlink:title=" ">
<path fill="none" stroke="#63b8ff" d="M539.15,-54.98C526.86,-46.84 508.09,-34.41 493.52,-24.76"/>
<polygon fill="#63b8ff" stroke="#63b8ff" points="495.36,-21.78 485.09,-19.17 491.49,-27.61 495.36,-21.78"/>
</a>
</g>
</g>
<!-- Node17 -->
<g id="Node000017" class="node">
<title>Node17</title>
<g id="a_Node000017"><a xlink:title=" ">
<polygon fill="#e0e0e0" stroke="#999999" points="574.5,-19 529.5,-19 529.5,0 574.5,0 574.5,-19"/>
<text text-anchor="middle" x="552" y="-7" font-family="Helvetica,sans-Serif" font-size="10.00">utility</text>
</a>
</g>
</g>
<!-- Node16&#45;&gt;Node17 -->
<g id="edge19_Node000016_Node000017" class="edge">
<title>Node16&#45;&gt;Node17</title>
<g id="a_edge19_Node000016_Node000017"><a xlink:title=" ">
<path fill="none" stroke="#63b8ff" d="M552,-54.75C552,-47.8 552,-37.85 552,-29.13"/>
<polygon fill="#63b8ff" stroke="#63b8ff" points="555.5,-29.09 552,-19.09 548.5,-29.09 555.5,-29.09"/>
</a>
</g>
</g>
</g>
</svg>
